<?xml version="1.0" encoding="UTF-8" standalone="no"?><svg xmlns="http://www.w3.org/2000/svg" xmlns:xlink="http://www.w3.org/1999/xlink" contentScriptType="application/ecmascript" contentStyleType="text/css" height="201px" preserveAspectRatio="none" style="width:716px;height:201px;" version="1.1" viewBox="0 0 716 201" width="716px" zoomAndPan="magnify"><defs><filter height="300%" id="f8zwoy6zga5ey" width="300%" x="-1" y="-1"><feGaussianBlur result="blurOut" stdDeviation="2.0"/><feColorMatrix in="blurOut" result="blurOut2" type="matrix" values="0 0 0 0 0 0 0 0 0 0 0 0 0 0 0 0 0 0 .4 0"/><feOffset dx="4.0" dy="4.0" in="blurOut2" result="blurOut3"/><feBlend in="SourceGraphic" in2="blurOut3" mode="normal"/></filter></defs><g><!--entity Player--><ellipse cx="405" cy="18" fill="#FEFECE" filter="url(#f8zwoy6zga5ey)" rx="8" ry="8" style="stroke: #A80036; stroke-width: 2.0;"/><path d="M405,26 L405,53 M392,34 L418,34 M405,53 L392,68 M405,53 L418,68 " fill="none" filter="url(#f8zwoy6zga5ey)" style="stroke: #A80036; stroke-width: 2.0;"/><text fill="#000000" font-family="sans-serif" font-size="14" lengthAdjust="spacingAndGlyphs" textLength="40" x="385" y="89.5332">Player</text><ellipse cx="30.2132" cy="171.9517" fill="#FEFECE" filter="url(#f8zwoy6zga5ey)" rx="24.2132" ry="15.4517" style="stroke: #A80036; stroke-width: 1.5;"/><text fill="#000000" font-family="sans-serif" font-size="14" lengthAdjust="spacingAndGlyphs" textLength="30" x="15.2132" y="177.2564">Start</text><ellipse cx="171.8351" cy="171.867" fill="#FEFECE" filter="url(#f8zwoy6zga5ey)" rx="82.3351" ry="18.867" style="stroke: #A80036; stroke-width: 1.5;"/><text fill="#000000" font-family="sans-serif" font-size="14" lengthAdjust="spacingAndGlyphs" textLength="132" x="105.8351" y="177.1717">ProposeCombination</text><ellipse cx="315.8345" cy="171.9517" fill="#FEFECE" filter="url(#f8zwoy6zga5ey)" rx="26.3345" ry="15.4517" style="stroke: #A80036; stroke-width: 1.5;"/><text fill="#000000" font-family="sans-serif" font-size="14" lengthAdjust="spacingAndGlyphs" textLength="33" x="299.3345" y="177.2564">Undo</text><ellipse cx="405.0416" cy="171.9517" fill="#FEFECE" filter="url(#f8zwoy6zga5ey)" rx="27.0416" ry="15.4517" style="stroke: #A80036; stroke-width: 1.5;"/><text fill="#000000" font-family="sans-serif" font-size="14" lengthAdjust="spacingAndGlyphs" textLength="34" x="388.0416" y="177.2564">Redo</text><ellipse cx="486.0605" cy="171.9484" fill="#FEFECE" filter="url(#f8zwoy6zga5ey)" rx="18.5605" ry="15.4484" style="stroke: #A80036; stroke-width: 1.5;"/><text fill="#000000" font-family="sans-serif" font-size="14" lengthAdjust="spacingAndGlyphs" textLength="22" x="475.0605" y="177.2531">Exit</text><ellipse cx="565.1274" cy="171.9517" fill="#FEFECE" filter="url(#f8zwoy6zga5ey)" rx="25.6274" ry="15.4517" style="stroke: #A80036; stroke-width: 1.5;"/><text fill="#000000" font-family="sans-serif" font-size="14" lengthAdjust="spacingAndGlyphs" textLength="32" x="549.1274" y="177.2564">Save</text><ellipse cx="665.7696" cy="171.9517" fill="#FEFECE" filter="url(#f8zwoy6zga5ey)" rx="39.7696" ry="15.4517" style="stroke: #A80036; stroke-width: 1.5;"/><text fill="#000000" font-family="sans-serif" font-size="14" lengthAdjust="spacingAndGlyphs" textLength="52" x="639.7696" y="177.2564">Resume</text><!--link Player to Start--><path d="M384.856,56.814 C332.603,70.776 188.655,110.368 72,153 C66.0624,155.1699 59.7517,157.733 53.8755,160.2343 " fill="none" id="Player-Start" style="stroke: #A80036; stroke-width: 1.0;"/><polygon fill="#A80036" points="49.0595,162.3109,58.9077,162.4206,53.6509,160.3312,55.7402,155.0743,49.0595,162.3109" style="stroke: #A80036; stroke-width: 1.0;"/><!--link Player to ProposeCombination--><path d="M384.73,61.896 C345.581,81.974 259.045,126.3567 209.246,151.8975 " fill="none" id="Player-ProposeCombination" style="stroke: #A80036; stroke-width: 1.0;"/><polygon fill="#A80036" points="204.544,154.3089,214.3776,153.7615,208.9931,152.0274,210.7272,146.6429,204.544,154.3089" style="stroke: #A80036; stroke-width: 1.0;"/><!--link Player to Undo--><path d="M384.805,78.616 C367.83,101.4077 344.05,133.337 329.356,153.0667 " fill="none" id="Player-Undo" style="stroke: #A80036; stroke-width: 1.0;"/><polygon fill="#A80036" points="326.185,157.3246,334.7689,152.4958,329.1716,153.3146,328.3528,147.7173,326.185,157.3246" style="stroke: #A80036; stroke-width: 1.0;"/><!--link Player to Redo--><path d="M405,93.2953 C405,113.0084 405,135.596 405,151.3184 " fill="none" id="Player-Redo" style="stroke: #A80036; stroke-width: 1.0;"/><polygon fill="#A80036" points="405,156.3731,409,147.3731,405,151.3731,401,147.3731,405,156.3731" style="stroke: #A80036; stroke-width: 1.0;"/><!--link Player to Exit--><path d="M425.022,81.039 C440.484,103.8498 461.349,134.6319 474.227,153.6311 " fill="none" id="Player-Exit" style="stroke: #A80036; stroke-width: 1.0;"/><polygon fill="#A80036" points="477.321,158.1955,475.582,148.5014,474.5155,154.0568,468.9601,152.9902,477.321,158.1955" style="stroke: #A80036; stroke-width: 1.0;"/><!--link Player to Save--><path d="M425.264,66.635 C456.201,89.741 514.829,133.5282 545.378,156.3445 " fill="none" id="Player-Save" style="stroke: #A80036; stroke-width: 1.0;"/><polygon fill="#A80036" points="549.674,159.5537,544.858,150.9627,545.6684,156.5612,540.0699,157.3716,549.674,159.5537" style="stroke: #A80036; stroke-width: 1.0;"/><!--link Player to Resume--><path d="M425.047,60.679 C470.816,81.634 583.166,133.0741 636.706,157.5877 " fill="none" id="Player-Resume" style="stroke: #A80036; stroke-width: 1.0;"/><polygon fill="#A80036" points="641.39,159.7321,634.8721,152.3486,636.8438,157.6507,631.5418,159.6224,641.39,159.7321" style="stroke: #A80036; stroke-width: 1.0;"/><!--
@startuml

actor Player
usecase Start
usecase ProposeCombination
usecase Undo
usecase Redo
usecase Exit
usecase Save
usecase Resume

Player - -> Start
Player - -> ProposeCombination
Player - -> Undo
Player - -> Redo
Player - -> Exit
Player - -> Save
Player - -> Resume

@enduml

PlantUML version 1.2019.05(Sat Apr 20 18:45:36 CEST 2019)
(GPL source distribution)
Java Runtime: OpenJDK Runtime Environment
JVM: OpenJDK 64-Bit Server VM
Java Version: 1.8.0_222-b10
Operating System: Windows 10
OS Version: 10.0
Default Encoding: windows-1252
Language: es
Country: ES
--></g></svg>