<?xml version="1.0" encoding="UTF-8" standalone="no"?><svg xmlns="http://www.w3.org/2000/svg" xmlns:xlink="http://www.w3.org/1999/xlink" contentScriptType="application/ecmascript" contentStyleType="text/css" height="760px" preserveAspectRatio="none" style="width:740px;height:760px;" version="1.1" viewBox="0 0 740 760" width="740px" zoomAndPan="magnify"><defs><filter height="300%" id="f1rrfze59raey1" width="300%" x="-1" y="-1"><feGaussianBlur result="blurOut" stdDeviation="2.0"/><feColorMatrix in="blurOut" result="blurOut2" type="matrix" values="0 0 0 0 0 0 0 0 0 0 0 0 0 0 0 0 0 0 .4 0"/><feOffset dx="4.0" dy="4.0" in="blurOut2" result="blurOut3"/><feBlend in="SourceGraphic" in2="blurOut3" mode="normal"/></filter></defs><g><ellipse cx="507.5" cy="18" fill="#000000" filter="url(#f1rrfze59raey1)" rx="10" ry="10" style="stroke: none; stroke-width: 1.0;"/><rect fill="#FEFECE" filter="url(#f1rrfze59raey1)" height="50" rx="12.5" ry="12.5" style="stroke: #A80036; stroke-width: 1.5;" width="61" x="477" y="89"/><line style="stroke: #A80036; stroke-width: 1.5;" x1="477" x2="538" y1="116.6094" y2="116.6094"/><text fill="#000000" font-family="sans-serif" font-size="14" lengthAdjust="spacingAndGlyphs" textLength="41" x="487" y="108.5332">State0</text><rect fill="#FEFECE" filter="url(#f1rrfze59raey1)" height="50" rx="12.5" ry="12.5" style="stroke: #A80036; stroke-width: 1.5;" width="61" x="6" y="217"/><line style="stroke: #A80036; stroke-width: 1.5;" x1="6" x2="67" y1="244.6094" y2="244.6094"/><text fill="#000000" font-family="sans-serif" font-size="14" lengthAdjust="spacingAndGlyphs" textLength="41" x="16" y="236.5332">State1</text><rect fill="#FEFECE" filter="url(#f1rrfze59raey1)" height="50" rx="12.5" ry="12.5" style="stroke: #A80036; stroke-width: 1.5;" width="61" x="71" y="345"/><line style="stroke: #A80036; stroke-width: 1.5;" x1="71" x2="132" y1="372.6094" y2="372.6094"/><text fill="#000000" font-family="sans-serif" font-size="14" lengthAdjust="spacingAndGlyphs" textLength="41" x="81" y="364.5332">State3</text><rect fill="#FEFECE" filter="url(#f1rrfze59raey1)" height="50" rx="12.5" ry="12.5" style="stroke: #A80036; stroke-width: 1.5;" width="61" x="477" y="473"/><line style="stroke: #A80036; stroke-width: 1.5;" x1="477" x2="538" y1="500.6094" y2="500.6094"/><text fill="#000000" font-family="sans-serif" font-size="14" lengthAdjust="spacingAndGlyphs" textLength="41" x="487" y="492.5332">State4</text><rect fill="#FEFECE" filter="url(#f1rrfze59raey1)" height="50" rx="12.5" ry="12.5" style="stroke: #A80036; stroke-width: 1.5;" width="61" x="569" y="601"/><line style="stroke: #A80036; stroke-width: 1.5;" x1="569" x2="630" y1="628.6094" y2="628.6094"/><text fill="#000000" font-family="sans-serif" font-size="14" lengthAdjust="spacingAndGlyphs" textLength="41" x="579" y="620.5332">State2</text><ellipse cx="599.5" cy="739" fill="none" filter="url(#f1rrfze59raey1)" rx="10" ry="10" style="stroke: #000000; stroke-width: 1.0;"/><ellipse cx="600" cy="739.5" fill="#000000" rx="6" ry="6" style="stroke: none; stroke-width: 1.0;"/><!--link *start to State0--><path d="M507.5,28.013 C507.5,40.698 507.5,64.409 507.5,83.57 " fill="none" id="*start-State0" style="stroke: #A80036; stroke-width: 1.0;"/><polygon fill="#A80036" points="507.5,88.84,511.5,79.84,507.5,83.84,503.5,79.84,507.5,88.84" style="stroke: #A80036; stroke-width: 1.0;"/><!--link State0 to State1--><path d="M476.959,123.17 C393.431,145.515 161.493,207.562 72.1878,231.453 " fill="none" id="State0-State1" style="stroke: #A80036; stroke-width: 1.0;"/><polygon fill="#A80036" points="67.2776,232.767,77.0056,234.3052,72.1077,231.4748,74.9381,226.577,67.2776,232.767" style="stroke: #A80036; stroke-width: 1.0;"/><text fill="#000000" font-family="sans-serif" font-size="13" lengthAdjust="spacingAndGlyphs" textLength="28" x="301.5" y="183.4951">Start</text><!--link State1 to State1--><path d="M67.159,238.235 C85.1553,237.432 102,238.687 102,242 C102,245.002 88.1656,246.314 72.1772,245.937 " fill="none" id="State1-State1" style="stroke: #A80036; stroke-width: 1.0;"/><polygon fill="#A80036" points="67.159,245.765,76.0171,250.0702,72.1561,245.9359,76.2904,242.0749,67.159,245.765" style="stroke: #A80036; stroke-width: 1.0;"/><text fill="#000000" font-family="sans-serif" font-size="13" lengthAdjust="spacingAndGlyphs" textLength="120" x="108" y="247.4951">ProposeCombination</text><!--link State1 to State1--><path d="M67.1661,237.125 C125.734,231.708 234,233.333 234,242 C234,250.413 131.985,252.19 72.4377,247.333 " fill="none" id="State1-State1-1" style="stroke: #A80036; stroke-width: 1.0;"/><polygon fill="#A80036" points="67.1661,246.875,75.786,251.6391,72.1473,247.3078,76.4786,243.6691,67.1661,246.875" style="stroke: #A80036; stroke-width: 1.0;"/><text fill="#000000" font-family="sans-serif" font-size="13" lengthAdjust="spacingAndGlyphs" textLength="90" x="240" y="247.4951">[undoable]Undo</text><!--link State1 to State1--><path d="M67.2321,236.132 C149.021,226.325 336,228.281 336,242 C336,255.437 156.612,257.59 72.3942,248.456 " fill="none" id="State1-State1-2" style="stroke: #A80036; stroke-width: 1.0;"/><polygon fill="#A80036" points="67.2321,247.868,75.7209,252.862,72.1999,248.4345,76.6273,244.9135,67.2321,247.868" style="stroke: #A80036; stroke-width: 1.0;"/><text fill="#000000" font-family="sans-serif" font-size="13" lengthAdjust="spacingAndGlyphs" textLength="87" x="342" y="247.4951">[redoable]Redo</text><!--link State1 to State3--><path d="M29.9557,267.178 C27.3264,281.733 26.3738,300.241 33.5,315 C40.5669,329.636 53.742,341.522 66.6271,350.378 " fill="none" id="State1-State3" style="stroke: #A80036; stroke-width: 1.0;"/><polygon fill="#A80036" points="70.9765,353.265,65.6902,344.955,66.8107,350.4998,61.2659,351.6203,70.9765,353.265" style="stroke: #A80036; stroke-width: 1.0;"/><text fill="#000000" font-family="sans-serif" font-size="13" lengthAdjust="spacingAndGlyphs" textLength="23" x="34.5" y="311.4951">Exit</text><!--link State1 to State3--><path d="M49.0327,267.294 C59.7783,288.124 75.2788,318.171 86.6461,340.206 " fill="none" id="State1-State3-1" style="stroke: #A80036; stroke-width: 1.0;"/><polygon fill="#A80036" points="89.0058,344.781,88.436,334.9486,86.7142,340.3371,81.3258,338.6152,89.0058,344.781" style="stroke: #A80036; stroke-width: 1.0;"/><text fill="#000000" font-family="sans-serif" font-size="13" lengthAdjust="spacingAndGlyphs" textLength="122" x="74.5" y="311.4951">[isWinner || isLooser]</text><!--link State3 to State4--><path d="M132.016,380.47 C205.731,403.347 393.206,461.53 471.885,485.947 " fill="none" id="State3-State4" style="stroke: #A80036; stroke-width: 1.0;"/><polygon fill="#A80036" points="476.907,487.506,469.4979,481.0171,472.1319,486.0233,467.1257,488.6573,476.907,487.506" style="stroke: #A80036; stroke-width: 1.0;"/><text fill="#000000" font-family="sans-serif" font-size="13" lengthAdjust="spacingAndGlyphs" textLength="28" x="330.5" y="439.4951">Save</text><!--link State0 to State4--><path d="M506.976,139.139 C506.247,173.992 504.966,240.435 504.5,297 C503.999,357.816 505.587,429.026 506.641,467.945 " fill="none" id="State0-State4" style="stroke: #A80036; stroke-width: 1.0;"/><polygon fill="#A80036" points="506.78,472.988,510.5317,463.8817,506.6429,467.9899,502.5347,464.1011,506.78,472.988" style="stroke: #A80036; stroke-width: 1.0;"/><text fill="#000000" font-family="sans-serif" font-size="13" lengthAdjust="spacingAndGlyphs" textLength="122" x="505.5" y="311.4951">[isWinner || isLooser]</text><!--link State2 to State0--><path d="M617.205,600.785 C633.283,576.365 654.5,536.95 654.5,499 C654.5,241 654.5,241 654.5,241 C654.5,182.462 586.469,145.257 542.969,127.452 " fill="none" id="State2-State0" style="stroke: #A80036; stroke-width: 1.0;"/><polygon fill="#A80036" points="538.316,125.582,545.1759,132.649,542.9555,127.4461,548.1584,125.2258,538.316,125.582" style="stroke: #A80036; stroke-width: 1.0;"/><text fill="#000000" font-family="sans-serif" font-size="13" lengthAdjust="spacingAndGlyphs" textLength="73" x="655.5" y="375.4951">[isResumed]</text><!--link State4 to State2--><path d="M525.239,523.294 C540.511,544.211 562.571,574.423 578.678,596.482 " fill="none" id="State4-State2" style="stroke: #A80036; stroke-width: 1.0;"/><polygon fill="#A80036" points="581.816,600.781,579.7396,591.1535,578.8677,596.7428,573.2784,595.8708,581.816,600.781" style="stroke: #A80036; stroke-width: 1.0;"/><text fill="#000000" font-family="sans-serif" font-size="13" lengthAdjust="spacingAndGlyphs" textLength="48" x="559.5" y="567.4951">Resume</text><!--link State2 to *end--><path d="M599.5,651.0853 C599.5,673.1589 599.5,705.1177 599.5,723.5025 " fill="none" id="State2-*end" style="stroke: #A80036; stroke-width: 1.0;"/><polygon fill="#A80036" points="599.5,728.7464,603.5,719.7464,599.5,723.7464,595.5,719.7464,599.5,728.7464" style="stroke: #A80036; stroke-width: 1.0;"/><text fill="#000000" font-family="sans-serif" font-size="13" lengthAdjust="spacingAndGlyphs" textLength="32" x="600.5" y="695.4951">[else]</text><!--
@startuml

[*] - -> State0
State0 - -> State1 : Start
State1 - -> State1 : ProposeCombination
State1 - -> State1 : [undoable]Undo
State1 - -> State1 : [redoable]Redo
State1 - -> State3 : Exit
State3 - -> State4 : Save
State1 - -> State3 : [isWinner || isLooser]
State0 - -> State4 : [isWinner || isLooser]
State2 - -> State0 : [isResumed]
State4 - -> State2 : Resume
State2 - -> [*] : [else]

@enduml

PlantUML version 1.2019.05(Sat Apr 20 18:45:36 CEST 2019)
(GPL source distribution)
Java Runtime: OpenJDK Runtime Environment
JVM: OpenJDK 64-Bit Server VM
Java Version: 1.8.0_222-b10
Operating System: Windows 10
OS Version: 10.0
Default Encoding: windows-1252
Language: es
Country: ES
--></g></svg>